<svg width="12" height="12" viewBox="0 0 12 12" fill="none" xmlns="http://www.w3.org/2000/svg">
<path d="M8.77515 7.57355L7.90537 8.44333C6.85911 7.95507 5.96024 7.36138 5.29619 6.7038C4.30421 5.72147 3.77377 4.65904 3.55669 4.09465L4.42647 3.22486C4.66664 2.98469 4.66664 2.5953 4.42647 2.35513L2.25213 0.180784C2.01196 -0.0593851 1.62 -0.0627778 1.38845 0.185708C0.0629523 1.60812 -1.56593 4.19034 3.12187 8.87815C7.80965 13.5659 10.3919 11.937 11.8143 10.6116C12.0628 10.38 12.0594 9.98805 11.8192 9.74788L9.64488 7.57355C9.40471 7.33337 9.01532 7.33337 8.77515 7.57355Z" fill="#092B62"/>
</svg>
