<svg width="43" height="44" viewBox="0 0 43 44" fill="none" xmlns="http://www.w3.org/2000/svg">
<path d="M21.5002 4.19116C11.646 4.19116 3.5835 12.2357 3.5835 22.1437C3.5835 31.102 10.141 38.5374 18.7052 39.8812V27.3395H14.1543V22.1437H18.7052V18.1841C18.7052 13.687 21.3747 11.2145 25.4777 11.2145C27.4306 11.2145 29.4731 11.5549 29.4731 11.5549V15.9803H27.2156C24.9939 15.9803 24.2952 17.3599 24.2952 18.7754V22.1437H29.276L28.4697 27.3395H24.2952V39.8812C28.517 39.2143 32.3616 37.0602 35.1346 33.8074C37.9075 30.5549 39.4265 26.4179 39.4168 22.1437C39.4168 12.2357 31.3543 4.19116 21.5002 4.19116Z" fill="white"/>
</svg>
