<svg width="36" height="37" viewBox="0 0 36 37" fill="none" xmlns="http://www.w3.org/2000/svg">
<path fill-rule="evenodd" clip-rule="evenodd" d="M18.3283 27.9671C23.6519 27.9671 27.9676 23.6515 27.9676 18.3278C27.9676 13.0042 23.6519 8.68848 18.3283 8.68848C13.0046 8.68848 8.68896 13.0042 8.68896 18.3278C8.68896 23.6515 13.0046 27.9671 18.3283 27.9671ZM18.3283 24.754C21.8773 24.754 24.7545 21.8769 24.7545 18.3278C24.7545 14.7787 21.8773 11.9016 18.3283 11.9016C14.7792 11.9016 11.9021 14.7787 11.9021 18.3278C11.9021 21.8769 14.7792 24.754 18.3283 24.754Z" fill="white"/>
<path d="M27.9674 7.08203C27.0801 7.08203 26.3608 7.80132 26.3608 8.68859C26.3608 9.57586 27.0801 10.2951 27.9674 10.2951C28.8547 10.2951 29.574 9.57586 29.574 8.68859C29.574 7.80132 28.8547 7.08203 27.9674 7.08203Z" fill="white"/>
<path fill-rule="evenodd" clip-rule="evenodd" d="M1.70639 5.91894C0.655762 7.9809 0.655762 10.6802 0.655762 16.0787V20.5771C0.655762 25.9756 0.655762 28.6749 1.70639 30.7368C2.63054 32.5506 4.10517 34.0252 5.91894 34.9493C7.9809 36 10.6802 36 16.0787 36H20.5771C25.9756 36 28.6749 36 30.7368 34.9493C32.5506 34.0252 34.0252 32.5506 34.9493 30.7368C36 28.6749 36 25.9756 36 20.5771V16.0787C36 10.6802 36 7.9809 34.9493 5.91894C34.0252 4.10517 32.5506 2.63054 30.7368 1.70639C28.6749 0.655762 25.9756 0.655762 20.5771 0.655762H16.0787C10.6802 0.655762 7.9809 0.655762 5.91894 1.70639C4.10517 2.63054 2.63054 4.10517 1.70639 5.91894ZM20.5771 3.86887H16.0787C13.3264 3.86887 11.4554 3.87138 10.0093 3.98953C8.60057 4.10462 7.88019 4.31323 7.37766 4.56928C6.16848 5.1854 5.1854 6.16848 4.56928 7.37766C4.31323 7.88019 4.10462 8.60057 3.98953 10.0093C3.87138 11.4554 3.86887 13.3264 3.86887 16.0787V20.5771C3.86887 23.3294 3.87138 25.2002 3.98953 26.6465C4.10462 28.0553 4.31323 28.7756 4.56928 29.2782C5.1854 30.4873 6.16848 31.4703 7.37766 32.0864C7.88019 32.3425 8.60057 32.5512 10.0093 32.6662C11.4554 32.7843 13.3264 32.7869 16.0787 32.7869H20.5771C23.3294 32.7869 25.2002 32.7843 26.6465 32.6662C28.0553 32.5512 28.7756 32.3425 29.2782 32.0864C30.4873 31.4703 31.4703 30.4873 32.0864 29.2782C32.3425 28.7756 32.5512 28.0553 32.6662 26.6465C32.7843 25.2002 32.7869 23.3294 32.7869 20.5771V16.0787C32.7869 13.3264 32.7843 11.4554 32.6662 10.0093C32.5512 8.60057 32.3425 7.88019 32.0864 7.37766C31.4703 6.16848 30.4873 5.1854 29.2782 4.56928C28.7756 4.31323 28.0553 4.10462 26.6465 3.98953C25.2002 3.87138 23.3294 3.86887 20.5771 3.86887Z" fill="white"/>
</svg>
