<svg width="36" height="37" viewBox="0 0 36 37" fill="none" xmlns="http://www.w3.org/2000/svg">
<path d="M25.6676 9.53613H10.3289C9.59414 9.53613 9 10.1162 9 10.8334V26.2354C9 26.9525 9.59414 27.5361 10.3289 27.5361H25.6676C26.4023 27.5361 27 26.9525 27 26.2389V10.8334C27 10.1162 26.4023 9.53613 25.6676 9.53613ZM14.3402 24.8748H11.6684V16.2826H14.3402V24.8748ZM13.0043 15.1119C12.1465 15.1119 11.4539 14.4193 11.4539 13.565C11.4539 12.7107 12.1465 12.0182 13.0043 12.0182C13.8586 12.0182 14.5512 12.7107 14.5512 13.565C14.5512 14.4158 13.8586 15.1119 13.0043 15.1119ZM24.3387 24.8748H21.6703V20.6982C21.6703 19.7033 21.6527 18.4201 20.2816 18.4201C18.893 18.4201 18.682 19.5064 18.682 20.6279V24.8748H16.0172V16.2826H18.5766V17.4568H18.6117C18.9668 16.7818 19.8387 16.0682 21.1359 16.0682C23.8395 16.0682 24.3387 17.8471 24.3387 20.1604V24.8748Z" fill="white"/>
<circle cx="18" cy="18.5361" r="17.5" stroke="white"/>
</svg>
