<svg width="36" height="37" viewBox="0 0 36 37" fill="none" xmlns="http://www.w3.org/2000/svg">
<path d="M1 9.0625L14.8804 18.7073C16.0044 19.4883 16.5664 19.8788 17.1776 20.0301C17.7176 20.1637 18.2824 20.1637 18.8224 20.0301C19.4337 19.8788 19.9956 19.4883 21.1196 18.7073L35 9.0625M9.16 31H26.84C29.6963 31 31.1244 31 32.2154 30.4482C33.175 29.9629 33.9552 29.1884 34.4441 28.2358C35 27.1529 35 25.7353 35 22.9V12.1C35 9.26473 35 7.8471 34.4441 6.76417C33.9552 5.8116 33.175 5.03714 32.2154 4.55178C31.1244 4 29.6963 4 26.84 4H9.16C6.30373 4 4.8756 4 3.78465 4.55178C2.82502 5.03714 2.04482 5.8116 1.55587 6.76417C1 7.8471 1 9.26473 1 12.1V22.9C1 25.7353 1 27.1529 1.55587 28.2358C2.04482 29.1884 2.82502 29.9629 3.78465 30.4482C4.8756 31 6.30373 31 9.16 31Z" stroke="white" stroke-width="2" stroke-linecap="round" stroke-linejoin="round"/>
</svg>
